<svg aria-hidden="true" viewBox="0 0 24 24" xmlns="http://www.w3.org/2000/svg">
  <!-- AWS silhouette: three small server/rack boxes stacked above a curved
       arrow - the canonical AWS "smile under three boxes" mark, simplified
       into a single fill at viewBox 24x24 to match the other brand icons
       in this portfolio. -->
  <path d="M3 3h6v3H3zm0 4h6v3H3zm0 4h6v3H3zm8-8h6v3h-6zm0 4h6v3h-6zm0 4h6v3h-6zm-6 5.6c1.2.7 2.7 1.2 4.4 1.4 1.8.2 3.6.2 5.4-.1 1.7-.3 3.1-.7 4.3-1.4.1-.1.3 0 .4.2v.6c0 .2-.1.4-.3.5-1.3.7-2.9 1.2-4.7 1.5-1.9.3-3.8.3-5.6.1-1.9-.2-3.5-.7-4.8-1.5-.1-.1-.2-.3-.2-.4v-.6c0-.1.1-.2.3-.3.4 0 .6 0 .8 0z"/>
</svg>
