<svg aria-hidden="true" viewBox="0 0 24 24" xmlns="http://www.w3.org/2000/svg">
  <!-- Pandas logo: stylised panda face - filled oval with two ear rings and a
       darker central "mask". Single-fill silhouette at viewBox 24x24. -->
  <path d="M12 3c-5 0-9 4-9 9s4 9 9 9 9-4 9-9-4-9-9-9zm-2.5 5.5c0-.8.7-1.5 1.5-1.5s1.5.7 1.5 1.5-.7 1.5-1.5 1.5-1.5-.7-1.5-1.5zm5 0c0-.8.7-1.5 1.5-1.5s1.5.7 1.5 1.5-.7 1.5-1.5 1.5-1.5-.7-1.5-1.5zM12 18c-1.7 0-3.2-.8-4.2-2h8.4c-1 1.2-2.5 2-4.2 2zm4.5-6c-.8 1.4-2.4 2.4-4.2 2.5v.5c0 .3-.2.5-.5.5s-.5-.2-.5-.5v-.5c-1.7-.2-3.1-1.1-4-2.4-.2-.2-.1-.5.1-.7.2-.2.5-.1.7.1 1.1 1.6 3 2.6 5.2 2.6 2.1 0 4-1 5.2-2.6.2-.2.5-.3.7-.1.2.1.3.4.1.6z"/>
</svg>
