<svg aria-hidden="true" viewBox="0 0 24 24" xmlns="http://www.w3.org/2000/svg">
  <!-- PyTorch logo: stylised three-petal/flame mark from the PyTorch
       wordmark. Single-fill silhouette at viewBox 24x24. -->
  <path d="M12 2c-.6 0-1.2.5-1.2 1.1L10.8 9c0 .6-.6 1.1-1.2 1.1-.5 0-.9-.5-.9-1V8c-.1-1.1-1-2-2.1-2-.6 0-1.1.5-1.1 1.1v.4c0 5.3 4.3 11.3 9.5 13.2.4.1.8-.1.9-.5.1-.4-.1-.7-.5-.9-3.5-1.3-6.4-4.5-7.5-7.9 1.4 2.5 3.7 4.2 6.4 4.7.5.1 1-.3 1-.8V3.1c0-.6-.5-1.1-1.1-1.1h-.2zm.4 6.4c.4 0 .8.3.8.8v3.2c0 .4-.3.8-.8.8-.4 0-.8-.3-.8-.8V9.2c0-.5.4-.8.8-.8z"/>
</svg>
