<svg aria-hidden="true" viewBox="0 0 24 24" xmlns="http://www.w3.org/2000/svg">
  <path d="M8 2h8a2 2 0 0 1 2 2v16a2 2 0 0 1-2 2H8a2 2 0 0 1-2-2V4a2 2 0 0 1 2-2zm1 2v16h6V4H9z"/>
  <path d="M12 8.5a1.25 1.25 0 1 0 0 2.5 1.25 1.25 0 0 0 0-2.5z"/>
  <path d="M12 7.2c2.1 0 3.8.45 3.8 1s-1.7 1-3.8 1-3.8-.45-3.8-1 1.7-1 3.8-1z"/>
  <path d="M9.4 9.8c1.05 1.82 2.55 3.02 3.6 3.02s2.55-1.2 3.6-3.02c1.05 1.82 1.05 4.22 0 6.04-1.05 1.82-2.55 3.02-3.6 3.02s-2.55-1.2-3.6-3.02c-1.05-1.82-1.05-4.22 0-6.04z"/>
  <path d="M14.6 9.8c-1.05 1.82-2.55 3.02-3.6 3.02s-2.55-1.2-3.6-3.02c-1.05 1.82-1.05 4.22 0 6.04 1.05 1.82 2.55 3.02 3.6 3.02s2.55-1.2 3.6-3.02c1.05-1.82 1.05-4.22 0-6.04z"/>
  <path d="M12 19.5a1 1 0 0 0 0 2 1 1 0 0 0 0-2z"/>
</svg>
