<svg aria-hidden="true" viewBox="0 0 24 24" xmlns="http://www.w3.org/2000/svg">
  <!-- Seaborn: stylised box-plot glyph - a rectangle with whiskers extending
       out to small caps at top and bottom. Single-fill silhouette at
       viewBox 24x24, in the same minimalist style as matplotlib. -->
  <path d="M5 8.5h14v1H18a2 2 0 0 0-2-2H8a2 2 0 0 0-2 2H5v-1zm13 7.5H6v-1h1a2 2 0 0 0 2 2h6a2 2 0 0 0 2-2h1v1zM8 6.5h8a2.5 2.5 0 0 1 2.5 2.5v6A2.5 2.5 0 0 1 16 17.5H8A2.5 2.5 0 0 1 5.5 15V9A2.5 2.5 0 0 1 8 6.5zm-3 0c.6 0 1 .4 1 1v9c0 .6-.4 1-1 1s-1-.4-1-1v-9c0-.6.4-1 1-1zm14 0c.6 0 1 .4 1 1v9c0 .6-.4 1-1 1s-1-.4-1-1v-9c0-.6.4-1 1-1z"/>
</svg>
